<?xml version="1.0" standalone="no"?>
<!DOCTYPE svg PUBLIC "-//W3C//DTD SVG 20010904//EN"
 "http://www.w3.org/TR/2001/REC-SVG-20010904/DTD/svg10.dtd">
<svg version="1.0" xmlns="http://www.w3.org/2000/svg"
 width="1024.000000pt" height="1024.000000pt" viewBox="0 0 1024.000000 1024.000000"
 preserveAspectRatio="xMidYMid meet">

<g transform="translate(0.000000,1024.000000) scale(0.100000,-0.100000)"
fill="#000000" stroke="none">
<path d="M3820 8050 c-283 -13 -547 -101 -800 -268 -99 -65 -322 -283 -392
-382 -105 -150 -183 -322 -223 -495 -51 -222 -50 -195 -50 -1385 0 -1112 0
-1115 22 -1238 59 -324 208 -609 438 -837 129 -129 232 -204 370 -272 123 -61
134 -65 270 -102 230 -63 170 -61 1645 -61 740 0 1386 4 1435 9 146 14 417 90
563 157 254 116 500 357 642 627 57 108 128 310 161 458 24 103 24 109 24 714
0 336 -3 873 -6 1195 -7 657 -3 617 -90 877 -72 213 -186 391 -363 569 -221
220 -442 336 -796 415 l-105 24 -1295 1 c-712 1 -1365 -2 -1450 -6z m2720
-374 c132 -20 226 -49 356 -110 168 -80 281 -166 393 -302 130 -156 204 -314
253 -537 l23 -102 0 -1090 0 -1090 -23 -104 c-119 -530 -426 -840 -932 -942
-148 -30 -547 -38 -1755 -36 -1061 3 -1082 3 -1172 24 -322 74 -512 184 -691
398 -124 147 -218 352 -263 567 -21 102 -21 119 -19 1193 1 1193 -1 1142 61
1330 149 449 590 783 1074 814 61 4 666 6 1345 5 1108 -1 1247 -3 1350 -18z"/>
<path d="M4166 7279 c-267 -29 -498 -128 -721 -310 -223 -182 -351 -388 -442
-714 -23 -83 -25 -118 -35 -425 -9 -246 -8 -408 0 -610 10 -250 14 -286 41
-396 135 -547 569 -956 1088 -1025 118 -16 325 -6 428 20 140 35 344 126 458
203 l58 40 -116 79 c-64 43 -124 79 -134 79 -10 0 -29 -8 -42 -19 -125 -97
-400 -156 -621 -133 -138 14 -196 31 -313 88 -268 130 -460 385 -540 716 -41
172 -45 226 -45 703 0 414 2 469 19 545 63 282 205 520 406 679 162 128 328
190 555 206 171 13 402 -45 532 -132 124 -82 328 -251 553 -459 61 -56 153
-138 205 -181 53 -44 149 -136 214 -204 104 -109 124 -136 167 -224 93 -191
91 -321 -12 -541 -33 -72 -52 -98 -119 -162 -44 -41 -80 -79 -80 -82 0 -4 46
-50 103 -102 l102 -95 76 86 c154 175 234 320 265 478 21 109 18 263 -6 357
-31 121 -106 262 -203 379 -37 45 -330 314 -612 562 -62 55 -167 148 -233 207
-334 297 -660 423 -996 387z"/>
<path d="M5886 7269 c-162 -24 -348 -92 -485 -177 l-74 -46 48 -41 c70 -57
141 -128 146 -144 4 -10 31 -1 111 37 180 86 227 97 413 97 132 -1 176 -5 250
-23 271 -68 556 -331 666 -615 74 -192 88 -331 88 -872 1 -499 -20 -638 -123
-851 -96 -195 -197 -312 -368 -425 -189 -124 -416 -173 -651 -139 -187 27
-314 102 -637 378 -171 146 -543 470 -644 561 -87 79 -186 202 -219 273 -79
167 -75 403 8 568 29 58 137 193 176 223 16 11 29 26 29 33 0 6 -19 24 -42 39
-24 16 -69 50 -102 77 l-58 49 -62 -54 c-127 -112 -221 -260 -271 -433 -35
-116 -45 -312 -22 -420 22 -104 71 -213 132 -295 76 -102 371 -373 754 -693
58 -48 162 -136 229 -195 233 -200 424 -318 572 -355 105 -25 257 -38 370 -31
206 12 351 54 525 151 229 128 395 308 515 559 72 151 93 213 125 368 25 123
25 131 25 603 0 532 -8 663 -45 807 -28 106 -96 273 -146 358 -126 215 -336
406 -584 532 -176 89 -435 127 -649 96z"/>
<path d="M5943 6799 c-57 -7 -225 -67 -245 -87 -5 -5 23 -32 62 -61 39 -28 79
-65 88 -82 36 -64 32 -63 91 -43 99 32 269 6 363 -56 126 -84 200 -179 245
-314 l26 -81 8 -485 c4 -276 4 -513 -1 -550 -34 -247 -182 -443 -374 -495 -87
-24 -237 -17 -319 14 -82 32 -165 100 -632 522 -220 198 -342 326 -410 427
l-32 46 91 103 c49 57 96 103 103 103 25 0 13 19 -33 51 -26 17 -76 58 -111
90 -36 33 -71 59 -79 59 -29 0 -151 -129 -188 -199 -77 -147 -64 -327 33 -455
43 -57 260 -263 396 -376 50 -41 135 -117 190 -169 204 -192 425 -371 524
-424 25 -14 84 -35 131 -48 73 -18 102 -21 210 -16 151 6 252 33 365 98 130
74 292 265 345 407 56 149 55 132 55 752 l0 575 -26 82 c-41 128 -141 302
-218 381 -118 121 -298 210 -464 232 -82 11 -108 11 -194 -1z"/>
<path d="M4050 6780 c-152 -41 -274 -114 -386 -232 -97 -101 -148 -189 -211
-364 l-28 -79 -3 -521 c-3 -483 -1 -529 16 -615 38 -182 123 -351 232 -460 56
-56 194 -149 272 -183 154 -67 340 -78 523 -31 65 17 145 53 184 84 l25 19
-40 20 c-21 11 -69 43 -106 70 l-68 50 -122 -5 c-147 -6 -237 10 -344 61 -102
48 -165 115 -227 242 -74 148 -72 132 -72 694 l0 505 24 70 c13 39 40 102 59
140 65 127 211 245 346 281 68 18 190 18 253 -1 68 -20 178 -94 293 -196 52
-47 131 -112 175 -146 44 -33 127 -104 185 -158 58 -54 155 -141 215 -195 112
-99 169 -157 218 -222 l28 -36 -30 -60 c-20 -41 -51 -79 -95 -117 l-64 -57 67
-61 c36 -33 80 -76 98 -94 29 -31 34 -33 55 -21 47 27 137 134 170 203 30 66
32 77 33 180 0 105 -2 113 -32 172 -33 62 -114 168 -162 212 -90 82 -252 231
-351 325 -161 152 -409 359 -511 426 -51 33 -119 68 -170 85 -74 25 -101 29
-229 32 -121 2 -158 0 -220 -17z"/>
</g>
</svg>
